<?xml version="1.0" standalone="no"?>
<!DOCTYPE svg PUBLIC "-//W3C//DTD SVG 20010904//EN"
 "http://www.w3.org/TR/2001/REC-SVG-20010904/DTD/svg10.dtd">
<svg version="1.0" xmlns="http://www.w3.org/2000/svg"
 width="300.000000pt" height="300.000000pt" viewBox="0 0 300.000000 300.000000"
 preserveAspectRatio="xMidYMid meet">
<metadata>
Created by potrace 1.11, written by Peter Selinger 2001-2013
</metadata>
<g transform="translate(0.000000,300.000000) scale(0.100000,-0.100000)"
fill="#000000" stroke="none">
<path d="M1408 2745 c-2 -2 -29 -5 -61 -9 -113 -12 -286 -65 -400 -123 -168
-84 -381 -271 -478 -418 -81 -121 -145 -264 -179 -395 -31 -118 -35 -156 -34
-325 2 -221 37 -364 136 -556 152 -294 405 -509 733 -624 72 -26 96 -29 238
-33 126 -3 157 -1 158 10 2 49 -1 331 -3 333 -2 1 -30 5 -63 8 -98 8 -194 36
-300 87 -403 195 -597 659 -448 1074 119 331 434 566 788 588 l31 2 0 193 0
194 -58 -2 c-32 -1 -59 -3 -60 -4z"/>
<path d="M1747 2723 c-3 -5 -4 -159 -4 -344 0 -185 -3 -341 -7 -347 -5 -8 -48
-12 -131 -12 -149 0 -207 -11 -304 -57 -141 -67 -252 -209 -284 -365 -16 -74
-15 -183 3 -248 42 -156 163 -294 316 -358 73 -31 94 -34 254 -41 l145 -6 3
-343 2 -342 28 0 c65 0 262 67 369 126 130 72 182 112 303 234 165 165 286
382 334 602 l6 28 -642 0 c-412 0 -656 4 -680 10 -137 39 -211 204 -149 333
25 52 87 108 140 126 24 8 222 11 683 11 614 0 649 1 644 18 -2 9 -12 46 -21
82 -20 84 -85 229 -142 322 -167 271 -449 478 -760 557 -90 23 -100 24 -106
14z"/>
</g>
</svg>
